<svg xmlns="http://www.w3.org/2000/svg" viewBox="0 0 500 500"><defs><style>.cls-1{fill:#fff;}.cls-2{font-size:48px;font-family:RageItalic, Rage Italic;}.cls-2,.cls-3{fill:#323c64;}.cls-4{fill:#2192d0;}.cls-5{fill:#e7b034;}.cls-6{fill:#ca577c;}.cls-7{fill:#c6d035;}</style></defs><g id="BACKGROUND"><rect class="cls-1" width="500" height="500"/></g><g id="OBJECTS"><text/><text class="cls-2" transform="translate(142.16 345.19)">Shoppingo</text><polygon class="cls-3" points="390.45 102.45 387.22 83.05 329.16 91.06 303.9 201.94 165.39 219.25 138.39 119.75 126.38 119.75 151.13 234.59 321.77 222.88 346.98 108.08 390.45 102.45"/><path class="cls-4" d="M291.39,231.59a27.6,27.6,0,1,0,27.6,27.6A27.6,27.6,0,0,0,291.39,231.59Zm0,42.67a15.07,15.07,0,1,1,15.07-15.07A15.07,15.07,0,0,1,291.39,274.26Z"/><path class="cls-4" d="M178.79,239.09a23.85,23.85,0,1,0,23.86,23.85A23.85,23.85,0,0,0,178.79,239.09Zm0,38.2a14.35,14.35,0,1,1,14.35-14.35A14.34,14.34,0,0,1,178.79,277.29Z"/><path class="cls-5" d="M215.05,116.76a13.86,13.86,0,0,0-3,.32l-.14-.47c-.17-.52-.33-1-.53-1.55a3.76,3.76,0,0,0-.91-1.54.63.63,0,0,0-1,.27,2.4,2.4,0,0,0-.08.93,12.89,12.89,0,0,0-1.41-.23,14.7,14.7,0,0,0-2.73-.13,5.68,5.68,0,0,0-4.12,1.75c-.25.3-.49.61-.71.93a.64.64,0,0,0-.11.74c.31.55,1.32.75,1.89.83a9.29,9.29,0,0,0,4.44-.71,8.54,8.54,0,0,0,2.11-1.17,6.48,6.48,0,0,0,.84-.76c.09.4.19.81.3,1.21,0,.17.09.35.13.52a14.15,14.15,0,1,0,5-.94Z"/><path class="cls-4" d="M177.91,144.58s.32-4.08,1.77-4.58c0,0,8,.55,10.92,2.58s6.6,3.34,11.91,4.21,6.94,1,10.52,2.64S223.22,152,223.22,152s-.66,4-1.65,5.38c0,0,.23,27.21-11.18,46.31L208.58,209s-6.8-2.08-11.89-3.07-9.81-.72-14.08-3.16-6.86-2.48-10.88-3.33a17.55,17.55,0,0,1-6.7-3l1.27-4.16S167.22,160.1,177.91,144.58Z"/><polygon class="cls-6" points="269.6 135.57 270.87 194.81 299.72 196.58 311.87 137.85 308.83 123.93 310.1 117.86 280.23 114.82 279.47 121.4 269.6 135.57"/><path class="cls-4" d="M231.88,111.27c-2.24,6.74,8,40.38,9.62,43.8S259.6,159,261,156.46s-2-44.17-2.15-46.58-7.21-3.54-8.73-4.17-2.28-5.19-2-6.33,1.9-1.14,1.52-3.17-3.42-2.4-7.34-1.52-4.93,2.16-4.81,3.55,1.65.76,2,1.77.88,5.7.5,6.71S232.77,108.62,231.88,111.27Z"/><path class="cls-7" d="M284.74,107.63C278.43,104.53,272,89.2,274.57,87s6.25-.09,6.25-.09,1.05-8,5.32-8.31,6.7,3.88,6.78,4.42,3.57-6.93,8.33-5.83,5.52,6.28,5.52,6.28,5.54-6.81,8.22-3.72-.47,9-.47,9,4.83.68,6,3.57-4.82,6-4.82,6,4.54-.4,4.75,2.91S301.4,115.83,284.74,107.63Z"/><path class="cls-5" d="M275.33,118.11c-.46-1.12-.95-2.22-1.45-3.33l-.1-.22a2.26,2.26,0,0,0,.13-1c-.17-1.73-.57-3.47-.9-5.18s-.73-3.51-1.15-5.26q-1.23-5.17-2.85-10.25c-.83-2.58-1.58-5.84-3.83-7.61-.08-.74-.13-1.49-.14-2.24s.17-1.88-.37-2.57c-.67-.85-1.51,0-2.32,0-1,0-1.88-.16-2.73.54-.38.31-.72.77-1.2.9s-1.26-.27-1.81-.51c-.81-.35-1.94-.56-2.56.25s.21,1.69.76,2.28a12.07,12.07,0,0,1,2.39,3,7.94,7.94,0,0,1,.44,1.27,9.82,9.82,0,0,0-.24,4.67c.31,2,.87,4,1.34,6,1.24,5.27,3.06,10.36,4.57,15.55a6.36,6.36,0,0,0,.8,2,2.78,2.78,0,0,0,1.82,1c0,.28.08.57.13.85.2,1.07.39,2.15.59,3.22.11.63.17,1.6,1,1.64a1.44,1.44,0,0,0,.89-.31c.37-.27.65-.82,1.16-.82.68,0,1.23.61,2,.42a1.57,1.57,0,0,0,.78-.59,2.49,2.49,0,0,1,.92-.6,5.7,5.7,0,0,0,1.71-.85A2,2,0,0,0,275.33,118.11Z"/><path class="cls-6" d="M193.85,94.19c-6.27-2.92-13.36-2.85-20-1.75a39.66,39.66,0,0,0-9.9,2.79,24.79,24.79,0,0,0-3,1.67c-.3.17-.61.31-.91.49a28.44,28.44,0,0,0-11,12.66,35.37,35.37,0,0,0-3.09,17.25,17.41,17.41,0,0,0,3,9.08,13.87,13.87,0,0,0,7.4,5,20.91,20.91,0,0,0,10.54.07,19.82,19.82,0,0,0,8.84-4.44c2.56-2.27,4.52-5.19,6.57-7.93,2.22-3,4.39-6,6.69-8.92a18.44,18.44,0,0,1,3.38-3.51,24.88,24.88,0,0,1,4.11-2.18c2.69-1.26,4.87-3.18,5.59-6.25C203.55,102,199.08,96.62,193.85,94.19Z"/><path class="cls-7" d="M246,80.69c-.5-4-3.76-6.86-7.43-8.18a14.79,14.79,0,0,0-12.47,1.11,13.73,13.73,0,0,0-6.39,9.81c-.36,2.24-.38,4.51-.59,6.76-.17,1.9-.31,4-1.29,5.72a8.11,8.11,0,0,1-.69,1l-.07.07a.74.74,0,0,1-.12.13,12.91,12.91,0,0,1-2.28,2c-1.56,1-3.53,1.39-5,2.56a3.44,3.44,0,0,0-.89,4.37,3.38,3.38,0,0,0,4.21,1.38c.84-.35,1.45-1.5,2.36-1.55s1.77.63,2.67.77c2,.31,2.93-1.68,3.24-3.32A9,9,0,0,1,223.93,98c1.7-1.54,3.92-2.06,6.1-2.53,4.14-.88,8.16-1.81,11.49-4.56A11.85,11.85,0,0,0,246,80.69Z"/><path class="cls-7" d="M263.08,185c1-15.9-15.72-28.48-29.39-18.35-6.39,4.74-9.07,14.74-8.13,22.34.62,5,3.47,10.92,9,11.71a4.36,4.36,0,0,0,4-1.18,9,9,0,0,0,1.75-4.09c.69-2.84.92-5.84,2.18-8.52a8.67,8.67,0,0,1,1-1.76c.24-.3.79-1.11,1.27-.94s.56.94.63,1.28a4.52,4.52,0,0,1,0,1.68c-.36,2.41-1.48,4.65-1.79,7.07a6.12,6.12,0,0,0,3.07,6.53c2.69,1.4,5.83.67,8.26-.93C259.83,196.66,262.7,190.78,263.08,185Z"/><path class="cls-4" d="M241.14,278.32c-1,.88-1.92,2.09-2.6,2.53-2.42,1.57-5.84,2.08-8.14,0-1.06-1-2-2.58-3.53-2.88-3.27-.65-2.67,3.4-1.46,5a10.66,10.66,0,0,0,9.11,4.69,11.08,11.08,0,0,0,8.93-5.22c.66-1.13,1.8-2.89,1-4.18C243.49,276.71,242.28,277.29,241.14,278.32Z"/><path class="cls-3" d="M284.82,262.4c1-.88,1.92-2.09,2.6-2.53,2.42-1.57,5.84-2.08,8.14,0,1.05,1,2,2.58,3.53,2.87,3.27.65,2.67-3.39,1.46-5.05a10.63,10.63,0,0,0-9.11-4.68,11.06,11.06,0,0,0-8.93,5.22c-.66,1.12-1.8,2.88-1,4.17C282.47,264,283.68,263.43,284.82,262.4Z"/><path class="cls-3" d="M172.76,265.27c.8-.71,1.55-1.69,2.1-2,1.95-1.26,4.71-1.67,6.56,0,.85.78,1.65,2.08,2.85,2.32,2.64.52,2.15-2.74,1.18-4.08a8.58,8.58,0,0,0-7.35-3.77,8.88,8.88,0,0,0-7.2,4.21c-.54.91-1.46,2.32-.82,3.36C170.86,266.56,171.84,266.09,172.76,265.27Z"/></g></svg>