<svg id="Layer_1" data-name="Layer 1" xmlns="http://www.w3.org/2000/svg" viewBox="0 0 196.54 154.09"><defs><style>.cls-1,.cls-10{fill:none;}.cls-1{stroke:#4daf50;stroke-miterlimit:10;stroke-width:4.25px;}.cls-2{fill:#6fb752;}.cls-3{fill:#fff;}.cls-4{fill:#bbc7df;}.cls-5{fill:#c95017;}.cls-6{fill:#edf1f7;}.cls-11,.cls-7{fill:#ec6418;}.cls-8{fill:#3c8333;}.cls-9{fill:#4daf50;}.cls-11{font-size:37.46px;font-family:MVBoli, MV Boli;}</style></defs><path class="cls-1" d="M110.15,2.13h0a13.59,13.59,0,0,1,13.59,13.59v8.46a0,0,0,0,1,0,0H96.56a0,0,0,0,1,0,0V15.72A13.59,13.59,0,0,1,110.15,2.13Z"/><path class="cls-2" d="M390.22,316.27H317.7a3.72,3.72,0,0,1-3.71-4l.56-6.77.51-6,.26-3.12.5-6,4.29-51.32a3.73,3.73,0,0,1,3.7-3.41H384.1a3.71,3.71,0,0,1,3.7,3.41l3.32,39.69.44,5.13,0,.22.44,5.29,1.91,22.85A3.72,3.72,0,0,1,390.22,316.27Z" transform="translate(-243.81 -219.2)"/><rect class="cls-3" x="90.94" y="27.77" width="38.23" height="62.37" rx="5.23"/><rect class="cls-4" x="96.37" y="35.86" width="27.37" height="44.66" rx="3.74"/><path class="cls-4" d="M373,270.62V250.2a3.58,3.58,0,0,0-3.83-3.24H338.58a3.57,3.57,0,0,0-3.83,3.24v20.42Z" transform="translate(-243.81 -219.2)"/><path class="cls-5" d="M334,267.56h0a5,5,0,0,1-5-5v-5.54h9.95v5.54A5,5,0,0,1,334,267.56Z" transform="translate(-243.81 -219.2)"/><path class="cls-6" d="M343.91,267.56h0a5,5,0,0,1-5-5v-5.54h10v5.54A5,5,0,0,1,343.91,267.56Z" transform="translate(-243.81 -219.2)"/><path class="cls-5" d="M353.86,267.56h0a5,5,0,0,1-5-5v-5.54h9.95v5.54A5,5,0,0,1,353.86,267.56Z" transform="translate(-243.81 -219.2)"/><path class="cls-6" d="M363.82,267.56h0a5,5,0,0,1-5-5v-5.54h10v5.54A5,5,0,0,1,363.82,267.56Z" transform="translate(-243.81 -219.2)"/><path class="cls-5" d="M125,37.85h10a0,0,0,0,1,0,0v5.54a5,5,0,0,1-5,5h0a5,5,0,0,1-5-5V37.85A0,0,0,0,1,125,37.85Z"/><polygon class="cls-7" points="95.12 37.85 85.17 37.85 91.4 27.77 98.86 27.77 95.12 37.85"/><polygon class="cls-3" points="105.08 37.85 95.12 37.85 98.86 27.77 106.32 27.77 105.08 37.85"/><polygon class="cls-7" points="115.03 37.85 105.08 37.85 106.32 27.77 113.78 27.77 115.03 37.85"/><polygon class="cls-3" points="124.98 37.85 115.03 37.85 113.78 27.77 121.24 27.77 124.98 37.85"/><polygon class="cls-7" points="134.93 37.85 124.98 37.85 121.24 27.77 128.7 27.77 134.93 37.85"/><path class="cls-8" d="M392,288.49c-10.65,6.42-24.86,11.87-40.26,14.91-14.45,2.85-27.45,3.09-37.21,1.17l.51-6c9.47,2.37,22.53,2.4,37.12-.49,15.14-3,29.08-8.54,39.37-15.09Z" transform="translate(-243.81 -219.2)"/><path class="cls-4" d="M373,297.46v-5.32a128.93,128.93,0,0,1-20.8,5.94,114.36,114.36,0,0,1-17.43,2.13v5.3s0,.07,0,.11a126.85,126.85,0,0,0,17-2.22A141.47,141.47,0,0,0,373,297.46Z" transform="translate(-243.81 -219.2)"/><path class="cls-3" d="M391.58,284.11c-10.9,5.76-25.19,10.39-40.53,12.62-13.83,2-26.25,1.72-35.73-.37l.5-6c9.25,2.55,21.81,3.09,35.93,1.05,14.94-2.17,28.85-6.83,39.37-12.68l.44,5.13Z" transform="translate(-243.81 -219.2)"/><path class="cls-9" d="M410,258.91a11.93,11.93,0,0,1-.06,2.38c-1.83,13.92-28.07,28.8-58.59,33.23s-53.8-3.28-52-17.2a13.4,13.4,0,0,1,.58-2.45,17.06,17.06,0,0,0-3.77,8.1c-1.83,13.92,22.55,21.46,54.46,16.84s59.26-19.67,61.09-33.6A10.34,10.34,0,0,0,410,258.91Z" transform="translate(-243.81 -219.2)"/><rect class="cls-10" x="79.38" y="120.58" width="100.72" height="11"/><text class="cls-11" transform="translate(0 142.94)">E-<tspan class="cls-2" x="39.8" y="0">Shoppers</tspan></text></svg>